HIERARCHY
ROOT root
{
	OFFSET	0	13.1	24.9
	CHANNELS 6  Xposition Yposition Zposition Xrotation Yrotation Zrotation
	JOINT spine_1
	{
		OFFSET	0	9.99999	0
		CHANNELS 3  Xrotation Yrotation Zrotation
		JOINT spine_2
		{
			OFFSET	0	112	-10
			CHANNELS 3  Xrotation Yrotation Zrotation
			JOINT spine_3
			{
				OFFSET	0	206.5	19.3
				CHANNELS 3  Xrotation Yrotation Zrotation
				JOINT spine_4
				{
					OFFSET	0	110.4	14.6
					CHANNELS 3  Xrotation Yrotation Zrotation
					JOINT neck_1
					{
						OFFSET	0	71.8	-50.3
						CHANNELS 3  Xrotation Yrotation Zrotation
						JOINT neck_2
						{
							OFFSET	0	86.2	-25.8
							CHANNELS 3  Xrotation Yrotation Zrotation
							JOINT head_ee
							{
								OFFSET	0	179.8	-8.7
								CHANNELS 3  Xrotation Yrotation Zrotation
								End Site
								{
									OFFSET	1	0	0
								}
							}
						}
					}
					JOINT left_clavicle
					{
						OFFSET	-43.2	22.4	-70.8
						CHANNELS 3  Xrotation Yrotation Zrotation
						JOINT left_shoulder
						{
							OFFSET	-93.9	-5.79999	48.7
							CHANNELS 3  Xrotation Yrotation Zrotation
							JOINT left_elbow
							{
								OFFSET	-291.4	-30.8	15.2
								CHANNELS 3  Xrotation Yrotation Zrotation
								JOINT left_lowarm_twist
								{
									OFFSET	-110.7	-3.89999	13.6
									CHANNELS 3  Xrotation Yrotation Zrotation
									JOINT left_hand
									{
										OFFSET	-110.7	-3.89999	13.6
										CHANNELS 3  Xrotation Yrotation Zrotation
										JOINT left_ee
										{
											OFFSET	-80.8	-5.10001	12.1
											CHANNELS 3  Xrotation Yrotation Zrotation
											End Site
											{
												OFFSET	1	0	0
											}
										}
									}
								}
							}
						}
					}
					JOINT right_clavicle
					{
						OFFSET	43.2	22.4	-70.8
						CHANNELS 3  Xrotation Yrotation Zrotation
						JOINT right_shoulder
						{
							OFFSET	93.9	-5.79999	48.7
							CHANNELS 3  Xrotation Yrotation Zrotation
							JOINT right_elbow
							{
								OFFSET	291.4	-30.8	15.2
								CHANNELS 3  Xrotation Yrotation Zrotation
								JOINT right_lowarm_twist
								{
									OFFSET	110.7	-3.89999	13.6
									CHANNELS 3  Xrotation Yrotation Zrotation
									JOINT right_hand
									{
										OFFSET	110.7	-3.89999	13.6
										CHANNELS 3  Xrotation Yrotation Zrotation
										JOINT right_ee
										{
											OFFSET	80.8	-5.10001	12.1
											CHANNELS 3  Xrotation Yrotation Zrotation
											End Site
											{
												OFFSET	1	0	0
											}
										}
									}
								}
							}
						}
					}
				}
			}
		}
	}
	JOINT left_hip
	{
		OFFSET	-82.8	-127.5	0.300001
		CHANNELS 3  Xrotation Yrotation Zrotation
		JOINT left_knee
		{
			OFFSET	-28.2	-396.7	2.2
			CHANNELS 3  Xrotation Yrotation Zrotation
			JOINT left_ankle
			{
				OFFSET	-11.7	-411.3	35.4
				CHANNELS 3  Xrotation Yrotation Zrotation
				JOINT left_toes
				{
					OFFSET	0	-60	-88.6
					CHANNELS 3  Xrotation Yrotation Zrotation
					JOINT left_foot_ee
					{
						OFFSET	-22.5	-16.5	-42.2
						CHANNELS 3  Xrotation Yrotation Zrotation
						End Site
						{
							OFFSET	1	0	0
						}
					}
				}
			}
		}
	}
	JOINT right_hip
	{
		OFFSET	82.8	-127.5	0.300001
		CHANNELS 3  Xrotation Yrotation Zrotation
		JOINT right_knee
		{
			OFFSET	28.2	-396.7	2.2
			CHANNELS 3  Xrotation Yrotation Zrotation
			JOINT right_ankle
			{
				OFFSET	11.7	-411.3	35.4
				CHANNELS 3  Xrotation Yrotation Zrotation
				JOINT right_toes
				{
					OFFSET	0	-60	-88.6
					CHANNELS 3  Xrotation Yrotation Zrotation
					JOINT right_foot_ee
					{
						OFFSET	22.5	-16.5	-42.2
						CHANNELS 3  Xrotation Yrotation Zrotation
						End Site
						{
							OFFSET	1	0	0
						}
					}
				}
			}
		}
	}
}
MOTION
Frames: 14
Frame Time: 0.02
1372.05 701.618 -1475.22 0.894181163695 37.6383105322 -0.661179314702 -0.504964 -0.064995 -1.62437 -0.503496 0.0384857 -1.62521 -0.503786 0.393197 -1.57741 -0.507232 0.139173 -1.6197 -4.82097 6.59465 5.09573 -4.74697 8.26986 6.31589 -0.0 0.0 -0.0 9.90997 6.62603 19.0208 -2.48092 -26.7179 57.7782 2.86935 -54.8617 1.48952 85.0346 -4.43067 -8.86773 -0.934086 3.97891 -4.49532 -0.0 0.0 -0.0 9.16068 0.129973 -17.9379 -34.4986 22.4626 -51.77 0.567807 15.7101 -0.0783365 76.9342 3.48983 8.42759 -0.730915 -9.51455 0.750833 0.0 0.0 0.0 -17.1597 -12.89 8.84794 -8.00963 0.245975 1.20363 41.7911 16.0908 -5.10837 28.2122 -0.0 -0.0 -0.0 0.0 -0.0 28.664 -3.73953 -1.0536 4.37392 0.20467 0.639715 9.8299 9.99464 1.469 34.925 -0.0 -0.0 0.0 0.0 0.0 
1357.92201609 695.842 -1499.99327743 1.49256843212 40.1571060361 -0.940302596818 -0.53097 -0.0722256 -1.63603 -0.529481 0.0320114 -1.63731 -0.529567 0.390242 -1.59046 -0.533072 0.134196 -1.63212 -4.91818 6.6575 5.28887 -4.83958 8.25323 6.52707 -0.0 0.0 -0.0 9.9669 6.73272 19.1218 -4.61782 -26.2669 57.0766 2.71141 -53.3222 1.36158 84.9281 -4.41792 -8.86281 -0.90615 3.86772 -4.35958 -0.0 0.0 -0.0 9.26711 -0.432032 -18.1339 -34.4705 22.5766 -51.8611 0.572214 15.826 -0.079534 76.706 3.46427 8.41329 -0.755081 -9.78233 0.790125 0.0 0.0 0.0 -18.6177 -12.6299 6.99045 -8.98199 0.264311 1.35171 41.3896 17.1065 -5.09215 28.3585 -0.0 -0.0 -0.0 0.0 -0.0 27.9405 -3.80713 -0.881826 3.32926 0.151347 0.488345 9.75403 9.99883 1.45812 35.3522 -0.0 -0.0 0.0 0.0 0.0 
1342.43860887 696.936 -1532.76875269 3.33892340655 45.0441384418 -0.670883434342 -0.704646 -0.391396 -1.81654 -0.702852 -0.275031 -1.83776 -0.6926 0.139773 -1.85295 -0.697358 -0.154569 -1.85178 -4.19137 6.73889 5.21042 -4.11146 8.3579 6.43085 -0.0 0.0 -0.0 9.78637 6.59252 18.7841 -6.87359 -25.9058 55.6824 2.49649 -51.0325 1.19178 84.8432 -4.40776 -8.85888 -1.27814 5.36509 -6.14806 -0.0 0.0 -0.0 9.99913 -1.62132 -19.5659 -34.1451 22.2008 -51.326 0.519254 14.4253 -0.0657138 76.5599 3.44794 8.40408 -0.819897 -10.4628 0.909819 0.0 0.0 0.0 -19.8887 -12.6017 6.54409 -11.5694 0.300834 1.74702 39.2716 15.7426 -4.87813 29.4705 -0.0 -0.0 -0.0 0.0 -0.0 26.7854 -4.53596 -2.36306 -5.77952 -0.194446 -0.865298 15.723 9.51063 2.28658 36.8282 -0.0 -0.0 0.0 0.0 0.0 
1326.48602517 694.128 -1561.24069747 3.96952572954 49.1684977822 -1.58902759964 -0.684681 -0.475013 -1.58457 -0.683362 -0.373234 -1.61157 -0.671675 -0.00684664 -1.6542 -0.675394 -0.267976 -1.63237 -3.07307 7.11948 4.92497 -2.99168 9.11227 6.14815 -0.0 0.0 -0.0 9.80562 4.59228 18.9804 -9.18955 -25.526 54.8484 2.17036 -47.0676 0.945315 84.7837 -4.40065 -8.85611 -1.57496 6.51926 -7.57478 -0.0 0.0 -0.0 10.775 -2.23179 -21.1126 -32.8428 22.4287 -51.3117 0.507942 14.1237 -0.0629247 76.5854 3.45079 8.40569 -0.861683 -10.941 0.968184 0.0 0.0 0.0 -21.6769 -12.6498 5.03734 -13.5327 0.316616 2.04782 37.8901 14.6901 -4.73436 30.2069 -0.0 -0.0 -0.0 0.0 -0.0 25.9578 -5.0269 -3.42844 -12.9718 -0.313159 -1.96184 19.6469 9.28781 2.80094 37.8447 -0.0 -0.0 0.0 0.0 0.0 
1309.46186205 705.181 -1579.61718019 6.29180671253 51.9510214715 -3.66462635484 -0.973109 -0.42229 -1.41324 -0.972059 -0.331515 -1.43724 -0.962703 0.00270854 -1.47497 -0.965665 -0.230244 -1.45689 -2.27662 7.34216 4.64484 -2.19376 9.62125 5.85235 -0.0 0.0 -0.0 9.51063 3.09178 18.4937 -11.2332 -25.1682 53.8533 1.89537 -43.191 0.750315 84.8262 -4.40572 -8.85809 -1.78914 7.33486 -8.60168 -0.0 0.0 -0.0 11.2566 -2.5575 -22.0794 -31.5029 22.8719 -51.3804 0.513362 14.2683 -0.064254 76.5837 3.4506 8.40558 -0.878815 -11.1159 1.00095 0.0 0.0 0.0 -21.8882 -12.6181 3.47073 -14.8266 0.321379 2.24629 36.8992 14.149 -4.63329 30.4933 -0.0 -0.0 -0.0 0.0 -0.0 23.7745 -5.09763 -3.61778 -18.8961 -0.307141 -2.87037 22.3603 9.14883 3.141 38.5582 -0.0 -0.0 0.0 0.0 0.0 
1311.10929395 705.181 -1580.58734119 6.16900118734 51.0563847296 -3.50772096212 -0.973109 -0.42229 -1.41324 -0.972059 -0.331515 -1.43724 -0.962703 0.00270854 -1.47497 -0.965665 -0.230244 -1.45689 -2.27662 7.34216 4.64484 -2.19376 9.62125 5.85235 -0.0 0.0 -0.0 9.51063 3.09178 18.4937 -11.2332 -25.1682 53.8533 1.89537 -43.191 0.750315 84.8262 -4.40572 -8.85809 -1.78914 7.33486 -8.60168 -0.0 0.0 -0.0 11.2566 -2.5575 -22.0794 -31.5029 22.8719 -51.3804 0.513362 14.2683 -0.064254 76.5837 3.4506 8.40558 -0.878815 -11.1159 1.00095 0.0 0.0 0.0 -21.8882 -12.6181 3.47073 -14.8266 0.321379 2.24629 36.8992 14.149 -4.63329 30.4933 -0.0 -0.0 -0.0 0.0 -0.0 23.7745 -5.09763 -3.61778 -18.8961 -0.307141 -2.87037 22.3603 9.14883 3.141 38.5582 -0.0 -0.0 0.0 0.0 0.0 
1294.57276227 701.137 -1598.96612316 9.10128784955 52.3602626473 -6.12985574702 -1.42607 -0.356421 -1.10285 -1.42544 -0.285526 -1.12329 -1.4191 -0.0143837 -1.15892 -1.42092 -0.197221 -1.14211 -1.82427 7.47469 4.46925 -1.73968 9.9349 5.66473 -0.0 0.0 -0.0 9.32957 2.01814 18.1894 -12.6897 -25.0206 53.211 1.72068 -40.44 0.633812 84.8347 -4.40674 -8.85848 -1.9434 7.93814 -9.32794 -0.0 0.0 -0.0 11.5046 -2.60715 -22.5893 -30.573 23.1888 -51.2763 0.517998 14.3918 -0.0654012 76.5814 3.45034 8.40544 -0.890656 -11.2313 1.02586 0.0 0.0 0.0 -21.8439 -12.6388 2.57357 -15.7213 0.322051 2.38356 36.2043 13.7654 -4.56171 30.6845 -0.0 -0.0 -0.0 0.0 -0.0 22.1758 -5.16233 -3.98507 -23.0359 -0.247246 -3.50263 24.2027 9.05479 3.36411 39.0361 -0.0 -0.0 0.0 0.0 0.0 
1275.98083847 720.596 -1618.42899988 10.4103256732 52.9762034398 -7.30663571988 -1.73057 -0.109219 -0.795904 -1.73022 -0.0583542 -0.801241 -1.72906 0.135313 -0.791886 -1.72993 0.0085555 -0.803317 -1.50984 7.52674 4.27774 -1.42496 10.1365 5.45468 -0.0 0.0 -0.0 9.46343 1.34385 18.4924 -14.8489 -25.3173 54.1305 1.57632 -37.9823 0.542529 84.0198 -4.30954 -8.81993 -2.051 8.07338 -9.97001 -0.0 0.0 -0.0 11.5825 -1.78353 -22.8255 -27.4996 23.9643 -51.6629 0.540189 14.9812 -0.0710276 77.1612 3.51531 8.44171 -0.962373 -11.2926 1.45477 0.0 0.0 0.0 -19.8213 -12.6296 -0.328401 -22.3621 0.260105 3.40005 38.1454 13.2168 -4.73962 31.543 -0.0 -0.0 -0.0 0.0 -0.0 20.0662 -5.01086 -3.88355 -24.7133 -0.209996 -3.75735 25.9157 8.94109 3.56521 39.3275 -0.0 -0.0 0.0 0.0 0.0 
1243.88117668 727.98 -1633.58401421 12.1253503069 53.5998338231 -8.77266215479 -2.07368 -0.102376 -0.776764 -2.07335 -0.0527428 -0.781703 -2.07227 0.1407 -0.770744 -2.0731 0.0172134 -0.783291 -1.23653 6.76788 2.7754 -1.17237 9.9391 3.76062 -0.0 0.0 -0.0 9.25277 0.586771 18.0986 -17.4793 -24.9059 54.7572 1.26419 -32.0551 0.363172 84.338 -4.34744 -8.83515 -2.06862 8.93073 -9.66895 -0.0 0.0 -0.0 11.2875 -1.32861 -22.2454 -25.8864 24.2111 -51.2798 0.577376 15.9615 -0.0809477 76.8294 3.47809 8.42103 -0.970891 -10.6987 1.77025 0.0 0.0 0.0 -16.7576 -12.341 -0.477659 -31.0223 0.00355266 4.7031 39.2533 12.1562 -4.8293 32.2839 -0.0 -0.0 -0.0 0.0 -0.0 16.687 -4.20669 -3.53565 -26.276 -0.168596 -3.99359 27.6394 8.62379 3.75809 39.9249 -0.0 -0.0 0.0 0.0 0.0 
1226.96847006 732.886 -1646.65966503 12.6614962846 54.1607582584 -9.32321986982 -1.99684 -0.1215 -0.752307 -1.99652 -0.0733844 -0.758513 -1.99521 0.113983 -0.753483 -1.99601 -0.00644241 -0.762028 -0.997094 6.21071 1.68803 -0.939796 9.78667 2.52727 -0.0 0.0 -0.0 9.31158 0.124827 18.2365 -19.2024 -24.7548 55.7119 1.06917 -27.9064 0.265653 84.5595 -4.37385 -8.84562 -2.08711 9.56237 -9.48163 -0.0 0.0 -0.0 11.0833 -0.940192 -21.8478 -24.559 24.508 -51.0459 0.611009 16.8399 -0.0904443 76.6075 3.45325 8.40708 -0.973701 -10.2717 1.97628 0.0 0.0 0.0 -14.5663 -12.0618 -0.379868 -37.2138 -0.29909 5.60426 40.0253 11.4105 -4.89069 32.7988 -0.0 -0.0 -0.0 0.0 -0.0 14.235 -3.62898 -3.42801 -27.3723 -0.135709 -4.15862 28.8604 8.41428 3.89121 40.3074 -0.0 -0.0 0.0 0.0 0.0 
1204.96932746 720.819 -1658.58414655 13.3250869552 55.2510663187 -9.90450954866 -1.74393 -0.0803966 -0.744784 -1.74362 -0.0328424 -0.74839 -1.7429 0.147598 -0.734427 -1.74365 0.0297599 -0.748519 -0.803913 5.41707 0.474747 -0.750518 9.32455 1.13199 -0.0 0.0 -0.0 9.34994 -0.185101 18.3266 -20.4754 -24.5711 56.3936 0.889664 -23.7835 0.187351 84.5878 -4.37723 -8.84695 -2.16234 10.2162 -9.65026 -0.0 0.0 -0.0 10.9587 0.0130679 -21.6519 -22.6059 25.155 -49.9619 0.648067 17.7985 -0.101477 76.5141 3.44282 8.40118 -0.977765 -9.9601 2.13969 0.0 0.0 0.0 -11.7954 -11.8488 -0.650327 -41.4446 -0.561218 6.1993 40.1881 10.8531 -4.8999 32.9345 -0.0 -0.0 -0.0 0.0 -0.0 12.2762 -3.97783 -3.00306 -28.2134 -0.108341 -4.28479 29.7375 8.27484 3.9851 40.1428 -0.0 -0.0 0.0 0.0 0.0 
1186.65888387 728.105 -1665.38966099 14.9372766666 56.1650871432 -11.676692142 -1.64593 -0.164965 -0.709847 -1.64566 -0.119463 -0.718905 -1.64386 0.0551706 -0.726671 -1.64459 -0.0602829 -0.726265 -2.14512 3.21435 -1.74759 -2.10388 7.19111 -1.40753 -0.0 0.0 -0.0 9.35476 0.414271 18.313 -22.8007 -23.8377 57.8296 0.652966 -17.9244 0.102979 84.0747 -4.31608 -8.82257 -1.83269 9.43847 -7.88704 -0.0 0.0 -0.0 10.6676 0.691891 -21.0808 -21.5987 25.4534 -49.0577 0.673707 18.4557 -0.109454 75.2203 3.29928 8.31771 -0.869725 -8.05623 2.2804 0.0 0.0 0.0 -7.73367 -11.0331 -2.28263 -46.2218 -0.909267 6.84632 40.6696 9.72482 -4.93273 32.2418 -0.0 -0.0 -0.0 0.0 -0.0 10.7406 -4.03606 -1.55157 -29.0908 -0.0778153 -4.41599 31.1213 7.21726 4.11533 39.1628 -0.0 -0.0 0.0 0.0 0.0 
1168.22574455 739.142 -1674.032311 15.3006720113 57.406647374 -12.2994833583 -1.41259 -0.164625 -0.578272 -1.41242 -0.127495 -0.587575 -1.41091 0.01365 -0.601092 -1.41141 -0.0814509 -0.595705 -3.20844 1.72133 -3.32695 -3.15582 5.71504 -3.20207 -0.0 0.0 -0.0 9.30054 0.806644 18.1865 -24.5969 -23.2861 58.5829 0.491435 -13.6823 0.0589585 83.714 -4.27321 -8.80511 -1.60634 8.89988 -6.67214 -0.0 0.0 -0.0 10.4544 1.44941 -20.6712 -20.569 25.889 -48.3089 0.699214 19.1046 -0.117666 74.3138 3.19985 8.25731 -0.790233 -6.72335 2.34633 0.0 0.0 0.0 -4.54152 -10.4047 -3.12702 -49.5655 -1.18454 7.28116 40.9667 8.93956 -4.95299 31.7619 -0.0 -0.0 -0.0 0.0 -0.0 9.27807 -4.24934 -1.01034 -29.7041 -0.0552855 -4.50742 32.1269 6.49603 4.20866 38.4757 -0.0 -0.0 0.0 0.0 0.0 
1151.90745135 746.494 -1685.62471196 16.6061762651 58.3026791948 -12.897474827 -1.41171 -0.184724 -0.633363 -1.4115 -0.144048 -0.643834 -1.40964 0.0107165 -0.659663 -1.41024 -0.0935973 -0.653078 -4.03954 0.716138 -4.42054 -3.96953 4.69301 -4.43915 -0.0 0.0 -0.0 9.267 1.08479 18.1066 -25.8092 -22.911 59.1267 0.381979 -10.7151 0.0358222 83.4665 -4.24387 -8.79298 -1.44687 8.50392 -5.82051 -0.0 0.0 -0.0 10.3052 1.95239 -20.3792 -19.932 26.2033 -47.9333 0.717229 19.5598 -0.12363 73.6627 3.12902 8.21296 -0.732005 -5.7903 2.37205 0.0 0.0 0.0 -1.86695 -9.85374 -3.43382 -51.9043 -1.39203 7.5756 41.1152 8.39376 -4.96249 31.4199 -0.0 -0.0 -0.0 0.0 -0.0 8.15759 -4.4356 -0.733729 -30.1354 -0.0388556 -4.57157 32.8468 6.0086 4.27486 37.9883 -0.0 -0.0 0.0 0.0 0.0 
